<svg xmlns="http://www.w3.org/2000/svg" viewBox="0 0 500.36 143.52">
  <g data-name="Layer 2">
    <g data-name="Layer 1">
      <path d="M103.2 38.8L59.4 0 0 56.4v63.2h19.2v9.6h19.1v9.6h46v-9.6h19.2v-9.6h19.2V56.4zm-3.6 62.4h-10v8.3H73v8.3H49.6v-8.3H33v-8.3H23v-35l36.7-35 40 35v35zM182.62 10.45h-15.86v40.5h-3.11v-40.5h-15.86V7.64h34.83zM222.88 7.64v43.31h-3.11V30.21h-27.33v20.74h-3.11V7.64h3.11v19.77h27.33V7.64zM263 48.15v2.8h-28.84V7.64h28.31v2.81h-25.2v17h22v2.68h-22v18zM287.17 50.95V7.64h14.4a21 21 0 0111.43 2.9 18.28 18.28 0 016.83 7.81 25.52 25.52 0 012.28 10.89 24.83 24.83 0 01-2.5 11.47 18 18 0 01-7.13 7.56 21.4 21.4 0 01-10.92 2.68zM319 29.24a22.24 22.24 0 00-2-9.7 15.63 15.63 0 00-5.92-6.68 17.57 17.57 0 00-9.48-2.41h-11.32v37.7h11.29a17.35 17.35 0 009.57-2.5 15.71 15.71 0 005.89-6.8 22.72 22.72 0 001.97-9.61zM359.52 48.15v2.8h-28.86V7.64H359v2.81h-25.22v17h22v2.68h-22v18zM392.7 14.8a12.9 12.9 0 00-2.32-2 13.08 13.08 0 00-2.74-1.46 16.21 16.21 0 00-3.17-.89 21.19 21.19 0 00-3.66-.3q-6.35 0-9.24 2.4a8 8 0 00-2.9 6.49 6.64 6.64 0 001.33 4.35 8.9 8.9 0 004.12 2.59 58.8 58.8 0 007.26 1.89 53.38 53.38 0 018.11 2.28 12.52 12.52 0 015.28 3.57 9.27 9.27 0 011.84 6.08 11 11 0 01-1.1 5 9.37 9.37 0 01-3.17 3.57 15.93 15.93 0 01-4.91 2.13 25.28 25.28 0 01-6.32.73 27.23 27.23 0 01-6.4-.73 24.67 24.67 0 01-5.71-2.11 22 22 0 01-5-3.6l1.65-2.5a16.77 16.77 0 003 2.6 19.84 19.84 0 003.65 1.91 24.64 24.64 0 004.24 1.25 23.92 23.92 0 004.69.45c3.79 0 6.74-.69 8.88-2.1a7 7 0 003.2-6.24 7.05 7.05 0 00-1.46-4.63 10.46 10.46 0 00-4.52-2.89 56.28 56.28 0 00-7.62-2.1 54.11 54.11 0 01-7.78-2.19 10.91 10.91 0 01-4.82-3.29 8.87 8.87 0 01-1.61-5.61 11.15 11.15 0 011.92-6.61 11.91 11.91 0 015.4-4.11 21.3 21.3 0 018-1.4 23.14 23.14 0 015.21.55 16.58 16.58 0 014.46 1.68 17.93 17.93 0 013.81 2.83zM404.41 50.95V7.64h3.11v43.31zM436.19 51.26a17.67 17.67 0 01-8.11-1.89 21.39 21.39 0 01-6.46-5 23.17 23.17 0 01-4.24-7.08 22.35 22.35 0 01-1.5-8 23.3 23.3 0 011.47-8.21 22.37 22.37 0 014.14-7 20.18 20.18 0 016.35-4.88 17.85 17.85 0 018-1.8q6.46 0 10.46 2.65a17.46 17.46 0 016.07 6.8l-2.56 1.53a13.94 13.94 0 00-5.81-6.25 17.26 17.26 0 00-8.2-1.92 15 15 0 00-7 1.61 16.72 16.72 0 00-5.3 4.33 19.66 19.66 0 00-3.36 6.13 21.8 21.8 0 00-1.16 7 19.79 19.79 0 001.34 7.26 20.34 20.34 0 003.73 6.1 17.39 17.39 0 005.55 4.21 15.49 15.49 0 006.77 1.52 16.26 16.26 0 007.93-2 23.69 23.69 0 007.13-6.44v3.48q-6.43 7.86-15.24 7.85zm14.58-18.85H441v-2.5h12.51v21h-2.69zM465.72 13.44v37.51h-3.11V7.64h2.56l30.19 38.16V7.64h3.11v43.31h-3zM172.13 75.8v1.9a16.15 16.15 0 00-4.89.71 3.54 3.54 0 00-2.24 2.26 17.22 17.22 0 00-.57 5.18v47.12a17.29 17.29 0 00.57 5.13 3.42 3.42 0 002.23 2.28 19.7 19.7 0 004.89.76v1.9q-2.12-.24-5.45-.24t-6.6-.05q-3.7 0-6.94.05t-5.22.24v-1.9a19.7 19.7 0 004.89-.76 3.42 3.42 0 002.2-2.28 17.29 17.29 0 00.57-5.13V85.85a17.22 17.22 0 00-.57-5.18 3.54 3.54 0 00-2.23-2.28 16.15 16.15 0 00-4.89-.71V75.8c1.33.06 3.07.12 5.22.19s4.47.09 6.94.09q3.33 0 6.6-.09zm30.21 0v1.9a16 16 0 00-5.7 1.9 19 19 0 00-5.51 5l-18.33 23.48 2.09-4.66 22.8 31.92a14.28 14.28 0 003.51 3.71 15.21 15.21 0 004.85 2.09v1.9c-1.52-.13-3.41-.21-5.65-.24s-4.17-.05-5.75-.05c-1.08 0-2.39 0-3.94.05s-3.5.11-5.85.24v-1.9c2.16-.13 3.52-.51 4.09-1.14s.35-1.68-.67-3.14l-13.87-20.9a27.79 27.79 0 00-3.37-4.42 7.28 7.28 0 00-3-1.94 15.71 15.71 0 00-3.94-.57v-1.9a13.88 13.88 0 0011.17-5.33l9.12-11.59a30.61 30.61 0 004.27-6.75q1.14-2.74-.09-4.23c-.82-1-2.57-1.5-5.23-1.56V75.8l5.61.19c1.9.06 3.67.09 5.32.09q5.22-.02 8.07-.28zM281.86 75.8v1.9a16.1 16.1 0 00-4.89.71 3.56 3.56 0 00-2.24 2.28 17.22 17.22 0 00-.57 5.18v47.12a17.29 17.29 0 00.57 5.13 3.43 3.43 0 002.24 2.28 19.62 19.62 0 004.89.76v1.9q-2.19-.19-5.46-.24t-6.6-.05q-3.72 0-6.94.05c-2.15 0-3.89.11-5.23.24v-1.9a19.71 19.71 0 004.9-.76 3.44 3.44 0 002.23-2.28 17.29 17.29 0 00.57-5.13V85.85a17.22 17.22 0 00-.57-5.18 3.56 3.56 0 00-2.23-2.28 16.17 16.17 0 00-4.9-.71V75.8c1.34.06 3.08.12 5.23.19s4.46.09 6.94.09q3.31 0 6.6-.09zM361.56 75.8v1.9a16.15 16.15 0 00-4.89.71 3.54 3.54 0 00-2.23 2.28 17.22 17.22 0 00-.57 5.18v47.12a17.29 17.29 0 00.57 5.13 3.29 3.29 0 002.23 2.23 17.28 17.28 0 004.89.52h6.94q6 0 9.07-1.71a9.82 9.82 0 004.47-5.6 47.3 47.3 0 002-10.45h2.18q-.28 2.94-.28 7.79c0 1.2 0 2.93.14 5.18s.27 4.57.52 7q-4.84-.19-10.92-.24c-4.05 0-7.67-.05-10.83-.05h-7.55q-4.71 0-10 .05c-3.54 0-6.87.11-10 .24v-1.9a19.7 19.7 0 004.89-.76 3.42 3.42 0 002.23-2.28 17.29 17.29 0 00.57-5.13V85.85a17.22 17.22 0 00-.57-5.18 3.54 3.54 0 00-2.23-2.28 16.15 16.15 0 00-4.89-.71V75.8c1.33.06 3.07.12 5.22.19s4.47.09 6.94.09q3.33 0 6.6-.09zM500.36 75.8v1.9a11.67 11.67 0 00-4.89 1 4.37 4.37 0 00-2.24 2.75 19.86 19.86 0 00-.57 5.42v56.71h-2.18l-39.9-61.65v50.16a18.19 18.19 0 00.62 5.37 4.28 4.28 0 002.47 2.75 16.73 16.73 0 005.55 1v1.9c-1.14-.13-2.63-.21-4.46-.24s-3.58-.05-5.23-.05-3.18 0-4.79.05-3 .11-4 .24v-1.9a13.46 13.46 0 004.89-1 4.21 4.21 0 002.23-2.75 20 20 0 00.57-5.37V85.85a17.22 17.22 0 00-.57-5.18 3.54 3.54 0 00-2.23-2.28 16.15 16.15 0 00-4.89-.71V75.8l4 .19c1.61.06 3.21.09 4.79.09q2.1 0 4-.09l3.42-.19 33.54 51.68V86.8a18.45 18.45 0 00-.62-5.42 4.42 4.42 0 00-2.47-2.75 14.7 14.7 0 00-5.56-1V75.8c1.14.06 2.65.12 4.52.19s3.59.09 5.17.09 3.28 0 4.9-.09 2.91-.19 3.93-.19z"/>
    </g>
  </g>
</svg>
